<svg width="24" height="22" viewBox="0 0 24 22" fill="none" xmlns="http://www.w3.org/2000/svg">
<path d="M23 1H19L16 13.3996C15.9065 13.8582 15.6552 14.2694 15.2897 14.5617C14.9243 14.8541 14.4679 15.009 14 14.9996H5C4.53211 15.009 4.07572 14.8541 3.71029 14.5617C3.34485 14.2694 3.0935 13.8582 3 13.3996L1 4.99988H18" stroke="#61544F" stroke-width="2" stroke-linecap="round" stroke-linejoin="round"/>
<path d="M14.6189 21C14.0403 21 13.5713 20.5523 13.5713 20C13.5713 19.4477 14.0403 19 14.6189 19C15.1975 19 15.6665 19.4477 15.6665 20C15.6665 20.5523 15.1975 21 14.6189 21Z" stroke="#61544F" stroke-width="2" stroke-linecap="round" stroke-linejoin="round"/>
<path d="M4.14281 21C3.56423 21 3.09519 20.5523 3.09519 20C3.09519 19.4477 3.56423 19 4.14281 19C4.72139 19 5.19043 19.4477 5.19043 20C5.19043 20.5523 4.72139 21 4.14281 21Z" stroke="#61544F" stroke-width="2" stroke-linecap="round" stroke-linejoin="round"/>
</svg>
