<svg width="117" height="37" viewBox="0 0 117 37" fill="none" xmlns="http://www.w3.org/2000/svg">
<path d="M14.7202 4.76005H13.2802L4.88018 28.8H0.000175796L9.92018 0.800047H18.0002L27.9602 28.8H23.0802L14.7202 4.76005ZM5.44018 18.04H21.7602V21.96H5.44018V18.04ZM29.7149 10.48L32.1149 0.800047H37.2749L33.0349 10.48H29.7149ZM46.0086 25.84L46.5286 25.72V36.8H42.0086V8.80005H46.0886L46.4086 11.28C47.0753 10.5067 47.9419 9.85338 49.0086 9.32005C50.0753 8.78671 51.3686 8.52005 52.8886 8.52005C54.6219 8.52005 56.1553 8.94671 57.4886 9.80005C58.8486 10.6534 59.9019 11.8534 60.6486 13.4C61.4219 14.92 61.8086 16.72 61.8086 18.8C61.8086 20.8534 61.4219 22.6534 60.6486 24.2C59.9019 25.7467 58.8619 26.9467 57.5286 27.8C56.1953 28.6534 54.6486 29.08 52.8886 29.08C51.2886 29.08 49.9019 28.7734 48.7286 28.16C47.5553 27.52 46.6486 26.7467 46.0086 25.84ZM56.9686 18.8C56.9686 16.96 56.4753 15.4667 55.4886 14.32C54.5286 13.1734 53.2886 12.6 51.7686 12.6C50.8086 12.6 49.9286 12.84 49.1286 13.32C48.3553 13.8 47.7286 14.4934 47.2486 15.4C46.7686 16.3067 46.5286 17.44 46.5286 18.8C46.5286 20.1334 46.7686 21.2667 47.2486 22.2C47.7286 23.1067 48.3553 23.8 49.1286 24.28C49.9286 24.76 50.8086 25 51.7686 25C53.2886 25 54.5286 24.4267 55.4886 23.28C56.4753 22.1334 56.9686 20.64 56.9686 18.8ZM66.6721 8.80005H71.1921V28.8H66.6721V8.80005ZM68.9521 5.76005C68.1254 5.76005 67.4321 5.48005 66.8721 4.92005C66.3121 4.36005 66.0321 3.69338 66.0321 2.92005C66.0321 2.09338 66.3121 1.40005 66.8721 0.840046C67.4321 0.280047 68.1254 4.76837e-05 68.9521 4.76837e-05C69.7521 4.76837e-05 70.4321 0.280047 70.9921 0.840046C71.5521 1.40005 71.8321 2.09338 71.8321 2.92005C71.8321 3.69338 71.5521 4.36005 70.9921 4.92005C70.4321 5.48005 69.7521 5.76005 68.9521 5.76005ZM86.1249 29.08C84.1249 29.08 82.3649 28.64 80.8449 27.76C79.3515 26.88 78.1782 25.6534 77.3249 24.08C76.4982 22.5067 76.0849 20.6934 76.0849 18.64C76.0849 16.6934 76.4982 14.96 77.3249 13.44C78.1515 11.92 79.2982 10.72 80.7649 9.84005C82.2315 8.96005 83.8982 8.52005 85.7649 8.52005C87.6582 8.52005 89.3249 8.93338 90.7649 9.76005C92.2049 10.5867 93.3249 11.7467 94.1249 13.24C94.9515 14.7067 95.3649 16.4134 95.3649 18.36C95.3649 18.68 95.3515 19.0267 95.3249 19.4C95.2982 19.7467 95.2582 20.12 95.2049 20.52H80.9649C81.0982 21.4534 81.3915 22.2667 81.8449 22.96C82.3249 23.6267 82.9249 24.1467 83.6449 24.52C84.3649 24.8934 85.1915 25.08 86.1249 25.08C87.2449 25.08 88.2449 24.8534 89.1249 24.4C90.0315 23.9467 90.6582 23.3467 91.0049 22.6L94.9649 23.92C94.1649 25.52 92.9782 26.7867 91.4049 27.72C89.8315 28.6267 88.0715 29.08 86.1249 29.08ZM90.4449 16.84C90.4182 16.0134 90.1915 15.2667 89.7649 14.6C89.3382 13.9334 88.7782 13.4134 88.0849 13.04C87.3915 12.64 86.6182 12.44 85.7649 12.44C85.0182 12.44 84.3115 12.6267 83.6449 13C82.9782 13.3734 82.4049 13.8934 81.9249 14.56C81.4715 15.2 81.1782 15.96 81.0449 16.84H90.4449ZM116.746 28.8H112.586L112.306 26.8C111.639 27.52 110.839 28.08 109.906 28.48C108.972 28.88 107.986 29.08 106.946 29.08C105.372 29.08 104.012 28.76 102.866 28.12C101.746 27.4534 100.879 26.4934 100.266 25.24C99.6525 23.96 99.3458 22.3867 99.3458 20.52V8.80005H103.866V19.92C103.866 21.5734 104.199 22.84 104.866 23.72C105.532 24.5734 106.559 25 107.946 25C109.279 25 110.319 24.5734 111.066 23.72C111.839 22.84 112.226 21.5467 112.226 19.84V8.80005H116.746V28.8Z" fill="#61544F"/>
</svg>
